# xmcd
#
# Track frame offsets:
#	150
#	12570
#	24607
#	38677
#	48255
#	61349
#	71130
#	82684
#	93705
#	105251
#
# Disc length: 1567 seconds
#
# Revision: 0
# Processed by: cddbd v1.5.2PL0 Copyright (c) Steve Scherf et al.
# Submitted via: audiograbber 1.83.01
#
DISCID=76061d0a
DTITLE=Elvis Presley - Elvis - 20 Original Albums  [CD13)
DYEAR=1900
DGENRE=Oldies
TTITLE0=Fool
TTITLE1=Where Do I Go From Here
TTITLE2=Love Me, Love The Life I Lead
TTITLE3=It's Still Here
TTITLE4=It's Impossible
TTITLE5=(That's What You Get) For Lovin' Me
TTITLE6=Padre
TTITLE7=I'll Take You Home Again Kathleen
TTITLE8=I Will Be True
TTITLE9=Don't Think Twice, It's All Right
EXTD=
EXTT0=
EXTT1=
EXTT2=
EXTT3=
EXTT4=
EXTT5=
EXTT6=
EXTT7=
EXTT8=
EXTT9=
PLAYORDER=
